# xmcd
# 
# Track frame offsets:
#     150
#     18640
#     37102
# 
# Disc length: 669
# 
# Revision: 4
# Processed by: cddbd v1.5.2PL0 Copyright (c) Steve Scherf et al.
# Submitted via: fre:ac v1.0.31
# 
DISCID=21029b03
DTITLE=Reef - I've Got Something To Say (Single Disc 2)
DYEAR=1999
DGENRE=Rock
TTITLE0=I've Got Something To Say (Single Version)
TTITLE1=Foot One
TTITLE2=Buried
EXTD=
EXTT0=
EXTT1=
EXTT2=
PLAYORDER=
